<?xml version="1.0" encoding="UTF-8"?>
<svg id="Layer_2" data-name="Layer 2" xmlns="http://www.w3.org/2000/svg" viewBox="0 0 89.61 104.25">
  <defs>
    <style>
      .cls-1 {
        fill: #58595b;
      }
    </style>
  </defs>
  <g id="Layer_1-2" data-name="Layer 1">
    <g>
      <g>
        <path class="cls-1" d="m44.8,89.11c-.09,0-.18,0-.27,0-12.49-.08-24.42-5.45-32.75-14.77-.02-.02-.03-.03-.04-.05l-2.04-2.28.09-.05C3.78,64.22.5,54.69.5,44.81s3.28-19.41,9.29-27.15l-.1-.05,2.08-2.33C19.7,6.42,30.85,1.13,42.63.55c.23-.01.47-.02.7-.03.49-.02.98-.02,1.47-.02,12.59,0,24.62,5.38,33.02,14.77,0,0,0,0,.01.01l2.07,2.31-.1.05c6.02,7.75,9.3,17.28,9.3,27.15s-3.28,19.41-9.3,27.15l.09.05-2.01,2.25s-.04.05-.07.07h0s-.07.09-.11.13c-8.32,9.24-20.19,14.57-32.64,14.65-.09,0-.18,0-.27,0Zm-14.2-19.62c2.9,7.53,7.05,12.82,11.7,14.24v-15.49c-4.04.12-7.98.55-11.7,1.25Zm16.7-1.25v15.49c4.65-1.42,8.8-6.71,11.7-14.24-3.72-.7-7.66-1.12-11.7-1.25Zm16.64,2.37c-1.67,4.47-3.76,8.3-6.18,11.3,5.19-1.82,9.98-4.71,14.03-8.53-2.39-1.08-5.03-2.01-7.84-2.76Zm-46.13,2.76c4.05,3.82,8.84,6.72,14.03,8.53-2.42-3-4.51-6.83-6.18-11.29-2.82.76-5.46,1.68-7.85,2.76Zm-12.23-26.07c.52,8.14,3.54,15.9,8.67,22.22,2.96-1.46,6.29-2.7,9.87-3.67-1.55-5.55-2.5-11.83-2.68-18.55H5.58Zm59.91,18.55c3.58.98,6.91,2.21,9.86,3.67,5.14-6.34,8.16-14.09,8.68-22.22h-15.86c-.19,6.72-1.13,13-2.68,18.55Zm-39.05-18.55c.19,6.28,1.12,12.21,2.58,17.41,4.22-.83,8.7-1.33,13.28-1.47v-15.94h-15.86Zm20.86,15.94c4.58.13,9.06.64,13.28,1.47,1.47-5.19,2.39-11.13,2.58-17.4h-15.86v15.94Zm20.87-20.94h15.86c-.52-8.13-3.54-15.89-8.68-22.23-2.95,1.46-6.28,2.69-9.86,3.67,1.55,5.55,2.5,11.83,2.68,18.55Zm-20.87,0h15.86c-.19-6.28-1.12-12.21-2.58-17.41-4.22.83-8.7,1.33-13.28,1.47v15.94Zm-20.86,0h15.86v-15.94c-4.58-.13-9.06-.64-13.28-1.47-1.47,5.19-2.39,11.13-2.58,17.41Zm-20.86,0h15.86c.19-6.73,1.13-13.01,2.68-18.55-3.59-.98-6.92-2.21-9.87-3.67-5.13,6.34-8.16,14.09-8.67,22.23ZM47.31,5.88v15.48c4.04-.12,7.98-.55,11.7-1.24-2.9-7.53-7.05-12.82-11.7-14.24Zm-16.7,14.24c3.72.7,7.66,1.12,11.7,1.25V5.88c-4.65,1.42-8.8,6.71-11.7,14.24Zm27.16-12.42c2.42,3,4.52,6.83,6.18,11.29,2.82-.76,5.45-1.68,7.84-2.76-4.05-3.82-8.84-6.72-14.03-8.53Zm-39.95,8.53c2.39,1.08,5.03,2,7.85,2.76,1.67-4.46,3.76-8.29,6.18-11.29-5.19,1.82-9.98,4.71-14.03,8.53Z"/>
        <path class="cls-1" d="m44.8,89.61h-.28c-12.62-.08-24.69-5.53-33.11-14.94l-2.5-2.79.14-.08C3.21,64.08,0,54.52,0,44.81s3.21-19.27,9.05-27l-.14-.08,2.5-2.79C19.35,6.06,30.73.64,42.61.05c.24-.01.47-.02.71-.03.5-.02.99-.02,1.49-.02,12.73,0,24.9,5.44,33.39,14.94l2.5,2.79-.14.08c5.84,7.73,9.05,17.3,9.05,27s-3.21,19.27-9.05,27l.13.07-2.5,2.79-.48-.21.37.33c-8.4,9.34-20.43,14.73-33,14.81h-.27Zm-34.32-17.47l1.62,1.81c8.28,9.25,20.08,14.58,32.43,14.65h.27s.26,0,.26,0c12.3-.08,24.06-5.35,32.27-14.48l.48.21-.38-.32.08-.09,1.59-1.78-.06-.03.36-.46c5.93-7.63,9.2-17.17,9.2-26.85s-3.27-19.21-9.2-26.85l-.36-.46.06-.03-1.65-1.85C69.15,6.32,57.25,1,44.81,1c-.49,0-.97,0-1.46.02-.23,0-.46.02-.69.03-11.62.57-22.74,5.88-30.51,14.55l-1.67,1.86.06.03-.36.46C4.26,25.59,1,35.13,1,44.81s3.26,19.22,9.19,26.85l.36.46-.06.03Zm32.32,12.26l-.65-.2c-4.7-1.43-8.96-6.6-12.02-14.54l-.22-.56.59-.11c3.78-.71,7.74-1.13,11.77-1.25l.52-.02v16.68Zm-11.51-14.53c2.74,6.86,6.52,11.59,10.51,13.16v-14.27c-3.6.13-7.13.51-10.51,1.11Zm15.51,14.53v-16.68l.52.02c4.04.12,8,.55,11.77,1.25l.59.11-.22.56c-3.05,7.94-7.32,13.11-12.02,14.54l-.65.2Zm1-15.64v14.26c3.99-1.57,7.77-6.29,10.51-13.15-3.38-.6-6.92-.98-10.51-1.11Zm8.47,14.2l1.1-1.37c2.39-2.97,4.45-6.72,6.1-11.16l.16-.43.44.12c2.86.77,5.52,1.71,7.92,2.79l.68.31-.54.51c-4.09,3.87-8.87,6.78-14.2,8.64l-1.66.58Zm7.98-11.75c-1.41,3.7-3.1,6.92-5.04,9.62,4.32-1.72,8.24-4.18,11.68-7.31-2.04-.88-4.27-1.65-6.64-2.31Zm-30.92,11.74l-1.66-.58c-5.33-1.86-10.11-4.77-14.21-8.64l-.54-.51.68-.31c2.4-1.08,5.07-2.02,7.93-2.79l.44-.12.16.43c1.65,4.44,3.71,8.19,6.1,11.15l1.1,1.37Zm-14.62-9.43c3.45,3.13,7.37,5.58,11.68,7.31-1.94-2.7-3.63-5.92-5.04-9.62-2.37.66-4.6,1.43-6.64,2.31Zm-4.6-3.37l-.25-.31c-5.22-6.44-8.26-14.22-8.78-22.51l-.03-.53h16.88v.49c.2,6.55,1.09,12.76,2.68,18.43l.14.48-.49.13c-3.59.98-6.88,2.2-9.78,3.64l-.36.18Zm-8-22.35c.6,7.75,3.45,15.02,8.27,21.1,2.74-1.33,5.8-2.47,9.12-3.4-1.49-5.48-2.34-11.43-2.55-17.7H6.12Zm69.38,22.35l-.36-.18c-2.9-1.44-6.19-2.66-9.77-3.64l-.49-.13.14-.48c1.58-5.67,2.48-11.88,2.67-18.43v-.49h16.89l-.03.53c-.53,8.28-3.57,16.06-8.79,22.51l-.25.31Zm-9.39-4.65c3.31.93,6.38,2.07,9.11,3.4,4.83-6.08,7.69-13.36,8.28-21.1h-14.84c-.21,6.27-1.07,12.22-2.55,17.7Zm-37.43-.22l-.13-.44c-1.51-5.36-2.41-11.42-2.6-17.53l-.02-.52h16.88v16.92h-.49c-4.52.15-8.96.64-13.2,1.47l-.45.09Zm-1.71-17.49c.21,5.68,1.05,11.31,2.42,16.33,4-.76,8.18-1.22,12.42-1.37v-14.95h-14.85Zm33.98,17.48l-.45-.09c-4.24-.83-8.68-1.32-13.2-1.46h-.49v-16.94h16.88l-.02.52c-.19,6.1-1.09,12.17-2.6,17.52l-.13.44Zm-13.13-2.53c4.24.15,8.42.61,12.42,1.37,1.38-5.02,2.21-10.64,2.42-16.33h-14.85v14.95Zm36.76-19.95h-16.88v-.49c-.2-6.56-1.09-12.76-2.68-18.43l-.14-.48.49-.13c3.58-.98,6.87-2.2,9.77-3.64l.36-.18.25.31c5.22,6.45,8.26,14.23,8.79,22.51l.03.53Zm-15.91-1h14.84c-.6-7.74-3.45-15.02-8.28-21.1-2.74,1.32-5.8,2.47-9.11,3.4,1.49,5.48,2.35,11.43,2.56,17.71Zm-4.97,1h-16.88v-16.93h.49c4.52-.15,8.96-.64,13.2-1.47l.45-.09.13.44c1.51,5.36,2.41,11.42,2.6,17.53l.02.52Zm-15.88-1h14.85c-.21-5.68-1.05-11.31-2.43-16.33-4,.76-8.17,1.22-12.42,1.37v14.96Zm-5,1h-16.88l.02-.52c.19-6.1,1.09-12.17,2.6-17.53l.13-.44.45.09c4.24.83,8.68,1.33,13.2,1.46h.49v16.94Zm-15.85-1h14.85v-14.96c-4.25-.15-8.42-.61-12.42-1.37-1.38,5.02-2.21,10.65-2.43,16.33Zm-5.04,1H5.05l.03-.53c.53-8.28,3.56-16.07,8.78-22.51l.25-.31.36.18c2.9,1.44,6.19,2.66,9.78,3.64l.49.13-.14.48c-1.58,5.67-2.48,11.88-2.67,18.43v.49Zm-15.81-1h14.84c.21-6.27,1.07-12.23,2.56-17.71-3.32-.93-6.38-2.07-9.12-3.4-4.83,6.08-7.68,13.36-8.28,21.1Zm40.69-19.93V5.21l.65.2c4.69,1.43,8.96,6.59,12.02,14.54l.22.56-.59.11c-3.78.71-7.74,1.13-11.77,1.25l-.52.02Zm1-15.29v14.26c3.59-.13,7.12-.51,10.51-1.11-2.74-6.86-6.52-11.59-10.51-13.15Zm-5,15.29l-.52-.02c-4.03-.12-7.99-.55-11.77-1.25l-.59-.11.22-.56c3.06-7.94,7.32-13.1,12.02-14.54l.65-.2v16.67Zm-11.51-2.14c3.39.6,6.92.98,10.51,1.11V6.58c-3.99,1.56-7.77,6.29-10.51,13.15Zm32.34-.14l-.16-.43c-1.65-4.44-3.71-8.19-6.1-11.16l-1.1-1.37,1.66.58c5.33,1.86,10.11,4.77,14.2,8.64l.54.51-.68.31c-2.4,1.08-5.06,2.02-7.92,2.79l-.44.12Zm-4.42-10.82c1.94,2.7,3.63,5.92,5.04,9.62,2.37-.66,4.6-1.43,6.64-2.31-3.45-3.13-7.37-5.58-11.68-7.31Zm-33.24,10.82l-.44-.12c-2.86-.77-5.52-1.71-7.93-2.79l-.68-.31.54-.51c4.1-3.87,8.88-6.77,14.21-8.64l1.66-.58-1.1,1.37c-2.39,2.97-4.45,6.72-6.1,11.15l-.16.43Zm-7.26-3.51c2.04.88,4.27,1.65,6.64,2.31,1.41-3.69,3.1-6.92,5.04-9.62-4.32,1.72-8.24,4.17-11.68,7.31Z"/>
      </g>
      <g>
        <rect class="cls-1" x="19.8" y="96.75" width="50" height="7" rx="2.5" ry="2.5"/>
        <path class="cls-1" d="m67.3,104.25H22.3c-1.65,0-3-1.35-3-3v-2c0-1.65,1.35-3,3-3h45c1.65,0,3,1.35,3,3v2c0,1.65-1.35,3-3,3Zm-45-7c-1.1,0-2,.9-2,2v2c0,1.1.9,2,2,2h45c1.1,0,2-.9,2-2v-2c0-1.1-.9-2-2-2H22.3Z"/>
      </g>
    </g>
  </g>
</svg>